<?xml version="1.0" encoding="UTF-8" standalone="no"?>
<!-- Created with Inkscape (http://www.inkscape.org/) -->

<svg
   width="1920"
   height="1080"
   viewBox="0 0 507.99999 285.75001"
   version="1.1"
   id="svg5"
   inkscape:version="1.1.2 (0a00cf5339, 2022-02-04, custom)"
   sodipodi:docname="neurodesk-background.svg"
   xmlns:inkscape="http://www.inkscape.org/namespaces/inkscape"
   xmlns:sodipodi="http://sodipodi.sourceforge.net/DTD/sodipodi-0.dtd"
   xmlns="http://www.w3.org/2000/svg"
   xmlns:svg="http://www.w3.org/2000/svg">
  <sodipodi:namedview
     id="namedview7"
     pagecolor="#ffffff"
     bordercolor="#666666"
     borderopacity="1.0"
     inkscape:pageshadow="2"
     inkscape:pageopacity="0"
     inkscape:pagecheckerboard="0"
     inkscape:document-units="px"
     showgrid="false"
     units="px"
     width="1920px"
     inkscape:zoom="0.64052329"
     inkscape:cx="770.46379"
     inkscape:cy="606.53532"
     inkscape:window-width="3440"
     inkscape:window-height="1371"
     inkscape:window-x="0"
     inkscape:window-y="32"
     inkscape:window-maximized="1"
     inkscape:current-layer="layer1" />
  <defs
     id="defs2" />
  <g
     inkscape:label="Layer 1"
     inkscape:groupmode="layer"
     id="layer1">
    <rect
       style="fill:#1a1a1a;stroke-width:2.98732;stroke-linecap:round;stroke-linejoin:round"
       id="rect24171"
       width="508"
       height="285.75"
       x="0"
       y="0" />
    <path
       style="fill:#ffffff;stroke-width:0.264583"
       d="m 251.163,206.55853 c -0.65484,-0.22932 -6.36984,-2.25616 -12.7,-4.50408 -6.33015,-2.24792 -12.89866,-4.56416 -14.59669,-5.1472 l -3.08731,-1.06007 -0.15732,-1.23287 c -0.0865,-0.67808 -0.623,-4.86428 -1.19217,-9.30267 -1.24922,-9.7414 -2.23482,-19.03655 -2.03924,-19.23213 0.17934,-0.17934 6.22536,1.22136 16.30311,3.77698 5.25076,1.33154 8.04321,1.92368 8.54847,1.81271 0.41271,-0.0907 1.4753,-0.77888 2.36132,-1.52941 3.10369,-2.62911 8.28134,-6.78038 8.46185,-6.78445 0.4337,-0.01 0.49655,3.38279 0.42386,22.88235 -0.0761,20.41624 -0.0826,20.63803 -0.60609,20.68765 -0.29104,0.0276 -1.06494,-0.13748 -1.71979,-0.36681 z m 3.5746,-4.64428 c -0.2314,-6.28944 -0.0746,-38.1828 0.18899,-38.4462 0.2235,-0.22333 1.77186,0.94373 6.72304,5.06744 1.97231,1.64268 3.92142,3.06036 4.33134,3.1504 0.49864,0.10952 3.13927,-0.45095 7.97878,-1.69347 7.35742,-1.889 16.1398,-3.99536 16.65846,-3.99536 0.30472,0 0.25833,0.76731 -0.4614,7.6307 -0.48293,4.60531 -2.69058,22.03552 -2.8055,22.15044 -0.26348,0.26348 -31.58737,11.22928 -32.07653,11.22928 -0.27141,0 -0.39179,-1.14143 -0.53718,-5.09323 z m -24.60897,-33.95504 c -19.66774,-5.01224 -26.46294,-6.79202 -26.6757,-6.98682 -0.11956,-0.10947 2.0831,-1.98607 4.89479,-4.17023 2.81168,-2.18417 5.66052,-4.40466 6.33075,-4.93443 l 1.21859,-0.96322 7.11578,1.73731 c 3.91368,0.95552 10.74719,2.57623 15.18558,3.60157 4.43838,1.02534 9.82421,2.37179 11.9685,2.99211 l 3.89871,1.12786 5.75858,-1.3918 c 3.16722,-0.76549 11.83077,-2.78489 19.25234,-4.48755 11.93348,-2.7378 13.55925,-3.05423 14.06025,-2.73666 0.31158,0.19749 3.07759,2.32011 6.14669,4.71692 3.45215,2.69594 5.45593,4.42592 5.25434,4.53638 -0.99446,0.5449 -36.39828,9.49433 -37.55944,9.49433 -1.04208,0 -1.07063,-0.0199 -8.22602,-5.74945 l -4.71376,-3.77441 -5.18137,4.13518 c -6.52472,5.20729 -6.80171,5.39353 -7.98376,5.36822 -0.5254,-0.0113 -5.36058,-1.14314 -10.74485,-2.51531 z M 247.988,157.51276 c -6.78234,-1.42935 -11.04573,-2.5236 -11.82704,-3.03553 -0.51115,-0.33492 -0.63107,-0.59351 -0.52755,-1.13754 0.0737,-0.38725 0.22262,-1.18034 0.33096,-1.76242 l 0.19698,-1.05834 -0.59401,0.52669 -0.594,0.52669 -0.66485,-0.77293 c -1.21652,-1.41429 -0.37636,-3.66374 1.69862,-4.54788 1.85884,-0.79205 2.76338,-0.37796 4.6982,2.15077 1.52353,1.99117 2.49472,2.7324 3.84311,2.93314 1.59782,0.23786 2.18561,0.57667 3.17367,1.82936 1.01221,1.28328 2.51853,2.24576 3.5176,2.2476 1.83451,0.003 4.79642,-2.38692 5.99894,-4.84122 0.91268,-1.86273 1.44738,-4.34393 1.2514,-5.80691 -0.0731,-0.5457 -0.0892,-0.99218 -0.0357,-0.99218 0.0535,0 0.56592,0.68461 1.13873,1.52135 2.11765,3.09341 3.77008,4.38979 6.44872,5.05917 2.456,0.61374 2.46722,0.62058 3.12202,1.9041 0.52089,1.02103 1.28796,1.50102 0.92268,0.57736 -0.10071,-0.25466 -0.24374,-0.82316 -0.31784,-1.26333 l -0.13473,-0.80031 2.73693,-0.43455 c 1.50531,-0.239 3.27271,-0.62615 3.92755,-0.86033 1.70987,-0.61148 1.71198,-0.61131 1.79946,0.14155 0.08,0.68809 -1.03649,4.00551 -1.56051,4.63692 -0.15391,0.18545 -0.89572,0.46647 -1.64846,0.62448 -3.60546,0.75685 -9.52011,1.85817 -9.97929,1.85817 -0.29493,0 -0.83825,-0.44744 -1.27434,-1.04944 -0.85282,-1.17728 -1.1798,-1.12584 -0.94083,0.14801 0.22051,1.17543 -0.3875,1.51395 -3.9522,2.20045 -3.84875,0.74121 -5.0281,0.68387 -10.75425,-0.5229 z m -15.47812,-3.43686 c -5.00236,-0.96217 -6.02196,-1.4869 -7.1686,-3.68926 -0.50222,-0.9646 -0.65476,-3.45957 -0.29435,-4.81421 0.16784,-0.63084 0.33465,-0.72246 1.44509,-0.79375 l 1.25536,-0.0806 -1.61467,-0.59531 c -0.88806,-0.32742 -1.68268,-0.59531 -1.76581,-0.59531 -0.0831,0 -0.13044,0.72512 -0.10513,1.61138 0.0419,1.46724 -0.0191,1.66338 -0.68158,2.19275 -0.87099,0.69594 -0.91855,0.95836 -0.17367,0.95836 0.34725,0 0.61041,0.21596 0.70529,0.57879 0.0833,0.31832 0.47041,1.21129 0.86035,1.98437 0.59548,1.18054 0.64035,1.40559 0.28026,1.40559 -0.997,0 -7.06233,-1.64606 -7.84288,-2.12846 -1.65467,-1.02264 -2.20116,-3.75537 -1.19436,-5.97241 0.84878,-1.86909 2.49068,-2.54035 3.32159,-1.35798 0.40665,0.57865 0.42231,0.5805 0.55964,0.0661 0.0777,-0.29104 0.40222,-1.18401 0.72113,-1.98437 0.48918,-1.2277 0.7644,-1.54828 1.76038,-2.05052 1.30795,-0.65957 3.5158,-0.80666 3.97128,-0.26459 0.15284,0.1819 0.53513,0.67311 0.84953,1.09158 0.71796,0.95559 2.41154,1.7393 3.775,1.74688 1.39272,0.008 0.92907,-0.44238 -0.78563,-0.76272 -1.61583,-0.30187 -2.5776,-1.2883 -3.15639,-3.23731 -0.63831,-2.1494 -0.53531,-2.89051 0.64796,-4.66247 1.22694,-1.83736 1.36006,-3.01933 0.5523,-4.90376 -0.48642,-1.13476 -0.64422,-1.91862 -0.58159,-2.88903 0.0434,-0.67179 1.61687,-2.35135 2.57984,-2.7537 l 0.83902,-0.35057 -0.50416,-0.98888 c -0.67734,-1.32856 -0.64982,-1.57307 0.41695,-3.70542 2.28972,-4.57689 7.41924,-7.81519 11.7564,-7.42191 1.94333,0.17621 4.33228,1.23483 5.62382,2.49208 0.78509,0.76425 1.11452,0.9178 1.71979,0.80161 3.93192,-0.7548 4.21126,-0.78064 5.27277,-0.48761 2.29841,0.63447 3.94597,2.45538 4.65139,5.14079 l 0.3332,1.26841 -1.22984,1.05123 c -1.39015,1.18826 -2.18395,2.36151 -2.4505,3.62185 -0.13944,0.65935 -0.0921,0.85989 0.20297,0.85989 0.22162,0 0.45696,-0.36067 0.55491,-0.85041 0.44135,-2.20673 2.49566,-3.76226 4.9758,-3.76768 1.83003,-0.004 2.71912,0.5527 3.5971,2.25233 0.33387,0.64633 0.73661,1.14011 0.89496,1.0973 0.41436,-0.11201 2.14239,1.14328 2.80204,2.0355 0.3094,0.41849 0.802,1.72301 1.09468,2.89894 0.63431,2.54863 1.09496,3.50479 2.05066,4.25655 0.62469,0.49137 1.01282,0.55326 3.13067,0.49919 2.79443,-0.0714 3.84096,0.34811 4.75642,1.90639 0.45722,0.77828 0.53586,1.35611 0.52087,3.8271 -0.0147,2.42262 -0.13768,3.27339 -0.73372,5.07612 -0.59859,1.81045 -0.90905,2.33559 -1.89266,3.2014 -0.64714,0.56964 -1.85436,1.29506 -2.68271,1.61205 -2.22847,0.85279 -5.9753,1.42881 -8.43159,1.29625 -3.71053,-0.20027 -5.60719,-1.62203 -8.61617,-6.4588 -2.02651,-3.25749 -2.71711,-3.80098 -4.82978,-3.80098 -1.34179,0 -2.03217,0.19654 -2.03217,0.57853 0,0.15842 0.64163,0.18863 1.66928,0.0786 1.5402,-0.16494 1.73177,-0.12619 2.47718,0.50103 1.09374,0.92033 1.50664,2.51975 1.35643,5.25439 -0.19252,3.5047 -1.86936,6.27951 -4.85055,8.02661 l -1.20384,0.70549 -1.22411,-0.46749 c -0.67326,-0.25712 -1.91736,-1.10482 -2.76466,-1.88377 -0.90964,-0.83625 -1.7853,-1.41683 -2.13816,-1.41763 -0.96356,-0.002 -2.41505,-1.06828 -3.89749,-2.86266 -0.76038,-0.92037 -1.75772,-1.9022 -2.21631,-2.18183 -1.83114,-1.11656 -5.02704,-0.26414 -6.03147,1.60873 -0.66418,1.23844 -0.61733,2.12813 0.16848,3.19955 0.94217,1.28461 1.50002,2.57977 1.4061,3.26451 l -0.0811,0.59116 z m 19.4375,-8.73743 c 0.005,-0.0844 -0.6157,-0.041 -1.37969,0.0963 -2.52085,0.45314 -4.85484,-0.66391 -5.50531,-2.63486 -0.42256,-1.28037 -0.18571,-4.2605 0.44052,-5.54278 0.28699,-0.58767 1.10509,-1.47332 1.91663,-2.0749 1.5936,-1.18131 1.41973,-1.42503 -0.66057,-0.92597 -1.18656,0.28465 -1.53629,0.28083 -2.10398,-0.023 -0.99567,-0.53286 -1.47076,-1.61924 -1.26657,-2.8962 0.14188,-0.88726 0.103,-1.04268 -0.229,-0.91528 -0.26319,0.101 -0.58869,-0.152 -0.95211,-0.74003 -0.75463,-1.22101 -1.41278,-1.77321 -2.59978,-2.18128 -0.82044,-0.28206 -1.04241,-0.5104 -1.19725,-1.23162 -0.26754,-1.24622 0.1579,-2.34209 1.36799,-3.52371 0.84866,-0.8287 1.11369,-0.95874 1.4259,-0.69963 0.32784,0.27209 0.37961,0.0958 0.35681,-1.21458 -0.0539,-3.10085 1.65868,-4.4941 5.21451,-4.24207 1.03069,0.0731 2.11211,0.22305 2.40315,0.33334 0.51724,0.19599 0.51683,0.18752 -0.0181,-0.37621 -0.37203,-0.39205 -1.11396,-0.67063 -2.31699,-0.86997 l -1.76972,-0.29326 -1.9006,0.99564 c -1.86785,0.97847 -1.92409,0.98999 -3.26363,0.66864 -1.19632,-0.28699 -1.48477,-0.26921 -2.35836,0.14533 -1.74486,0.82799 -5.32601,5.95708 -5.12172,7.33557 0.066,0.44567 0.32555,0.10309 1.0555,-1.39341 1.36773,-2.80402 2.36605,-4.07445 3.71484,-4.72739 1.53858,-0.74481 2.70018,-0.73627 3.23253,0.0238 0.8587,1.22597 0.51238,2.17722 -1.64756,4.52543 l -1.17463,1.27701 0.11009,1.7289 0.11009,1.72889 -0.94045,0.60213 c -2.01305,1.28886 -2.45374,2.01758 -2.66361,4.40452 -0.17296,1.96722 -0.26548,2.23929 -0.95398,2.80528 -0.74714,0.6142 -0.7497,0.62515 -0.12753,0.54527 0.9361,-0.12017 1.58786,-1.19156 1.89858,-3.12096 0.35241,-2.18827 1.02801,-3.26253 2.4999,-3.97506 1.33194,-0.64478 2.32748,-0.55491 3.42613,0.30929 0.84374,0.66369 1.29763,1.54403 1.71781,3.33176 0.25582,1.08841 0.55103,1.57556 1.36402,2.25088 l 1.03756,0.86185 -0.53477,2.09092 c -0.69589,2.72089 -0.69167,4.69009 0.0132,6.14609 0.80851,1.67015 1.85827,2.21018 4.29633,2.21018 1.20936,0 2.07725,0.11906 2.18929,0.30033 0.11985,0.19393 0.30953,0.0768 0.5354,-0.33073 0.19239,-0.34708 0.35402,-0.70008 0.35917,-0.78444 z m 15.78883,-1.21249 c -0.0247,-0.29563 0.44035,-0.64548 1.41846,-1.06711 l 1.45521,-0.62728 -1.32292,0.20103 c -4.06704,0.61801 -6.25572,-0.68296 -5.83777,-3.47004 0.14989,-0.99951 0.0939,-1.15273 -0.61153,-1.67429 -0.53765,-0.3975 -0.9505,-1.09695 -1.34213,-2.2738 -0.79118,-2.37749 -1.15223,-2.63455 -3.944,-2.80808 -3.34555,-0.20794 -4.53065,-1.14169 -4.58017,-3.60874 -0.0239,-1.18935 0.0557,-1.3537 1.1067,-2.2864 0.62283,-0.55271 1.06624,-1.07111 0.98535,-1.152 -0.26481,-0.26481 -1.76145,0.67699 -2.35797,1.48382 -0.68769,0.93015 -0.96121,0.96168 -2.32172,0.2676 -1.23427,-0.62968 -2.13113,-1.7056 -2.13113,-2.55661 0,-0.34417 -0.11907,-0.62577 -0.26459,-0.62577 -0.14552,0 -0.26458,0.24403 -0.26458,0.5423 0,1.28216 1.53617,3.10063 3.20992,3.79979 0.77696,0.32455 0.99477,0.58163 1.13753,1.34261 0.21307,1.1358 1.41285,2.56739 2.63946,3.14946 0.55537,0.26354 1.59278,0.42625 2.71764,0.42625 2.29351,0 2.80314,0.34428 3.5527,2.40002 0.35125,0.96335 0.87514,1.82322 1.32578,2.17604 l 0.74505,0.58332 -0.42382,1.19062 c -0.38452,1.08023 -0.38575,1.28072 -0.0132,2.16224 0.51037,1.20769 1.43561,1.83295 2.96792,2.00567 0.65042,0.0733 1.31812,0.29661 1.48379,0.49623 0.4085,0.49222 0.71466,0.45709 0.67005,-0.0769 z m 5.42614,-3.86982 c 0.78943,-1.54741 0.95371,-4.05479 0.34914,-5.32884 -0.48763,-1.02761 -1.11344,-1.41719 -3.29849,-2.05339 -1.14466,-0.33328 -1.21275,-0.41131 -1.76385,-2.02122 -0.31528,-0.92101 -0.79153,-1.92009 -1.05833,-2.22018 -0.7645,-0.85987 -2.47641,-1.51836 -3.92469,-1.50963 l -1.32292,0.008 1.64383,0.61081 c 0.9041,0.33595 1.94437,0.80773 2.3117,1.04842 0.77926,0.51059 1.58238,1.97856 2.00867,3.67152 l 0.30118,1.19611 1.57539,0.11396 c 2.89025,0.20906 3.75072,2.07214 2.64235,5.72121 -0.30868,1.01627 -0.56124,1.9256 -0.56124,2.02073 0,0.41862 0.58308,-0.2496 1.09726,-1.25748 z m -33.37643,0.45915 c 0,-0.0805 -0.29766,-0.58437 -0.66146,-1.11975 -0.3638,-0.53538 -0.66146,-1.17689 -0.66146,-1.42556 0,-0.70323 -0.45508,-0.81306 -0.62486,-0.1508 -0.0837,0.32641 -0.69189,0.93196 -1.35157,1.34565 -0.65969,0.4137 -1.12836,0.86717 -1.04149,1.00772 0.0935,0.15124 0.39063,0.0856 0.72803,-0.1609 1.17023,-0.85482 1.84087,-1.09396 1.97123,-0.70291 0.24929,0.74789 1.64158,1.77121 1.64158,1.20655 z m 38.36857,12.78019 c 0.002,-0.0364 0.17556,-0.5424 0.38526,-1.12448 0.2097,-0.58209 0.38651,-1.7426 0.39289,-2.57893 0.0103,-1.35594 0.11108,-1.63069 0.93023,-2.53739 2.77434,-3.07086 3.62617,-8.81004 1.83857,-12.38721 -1.08748,-2.17617 -1.878,-2.62809 -5.00756,-2.86273 -2.13358,-0.15996 -2.65238,-0.29113 -3.29714,-0.83366 -0.7357,-0.61905 -0.90343,-1.01581 -1.97195,-4.66445 -0.33861,-1.15625 -0.76094,-1.83771 -1.7549,-2.83167 -0.71993,-0.71994 -1.30897,-1.54903 -1.30897,-1.84244 0,-0.38298 -0.12087,-0.48708 -0.4285,-0.36903 -0.29261,0.11229 -0.78002,-0.21843 -1.53695,-1.04283 -1.17515,-1.2799 -2.74306,-1.92969 -4.15591,-1.72233 -0.68801,0.10098 -0.75173,0.0268 -1.00974,-1.17633 -0.39412,-1.83772 -1.1191,-3.11637 -2.47619,-4.36729 -1.79099,-1.65088 -4.21296,-2.09566 -6.94092,-1.27467 -0.70756,0.21295 -1.32729,0.34636 -1.37717,0.29648 -0.0499,-0.0499 0.36129,-0.44379 0.9137,-0.87536 3.6471,-2.84925 7.36644,-3.61382 10.60927,-2.18092 0.62602,0.27662 1.91045,1.24448 2.85429,2.1508 1.46833,1.40997 1.70508,1.76454 1.63991,2.45605 -0.0731,0.77586 -0.0391,0.80465 0.84988,0.71989 1.18822,-0.11328 1.59029,-0.49073 0.76587,-0.71898 -0.35597,-0.0986 -1.18981,-0.93053 -1.90305,-1.8988 l -1.26946,-1.72339 1.53405,0.19073 c 2.65935,0.33064 6.41834,1.40988 8.51135,2.44368 3.61476,1.78543 6.83389,5.68816 7.35853,8.92114 0.16065,0.98995 0.14353,1.02031 -0.46997,0.8335 -0.35018,-0.10664 -1.79164,-0.27422 -3.20324,-0.37241 -1.4116,-0.0982 -2.69813,-0.31017 -2.85896,-0.47104 -0.16084,-0.16088 -0.39409,-1.01176 -0.51835,-1.89084 -0.2608,-1.84509 -0.65216,-2.71145 -1.22482,-2.71145 -0.22175,0 -0.34464,0.0947 -0.27309,0.21049 0.0716,0.11577 0.37913,1.4528 0.68352,2.97118 l 0.55343,2.76069 -0.95813,0.8044 c -0.77929,0.65425 -0.9838,1.03215 -1.09565,2.02453 -0.0756,0.67107 10e-4,1.63989 0.17033,2.15293 0.42241,1.27994 3.45805,4.08746 3.45805,3.1982 0,-0.0908 -0.53977,-0.64021 -1.19949,-1.22092 -1.47687,-1.29999 -1.97551,-2.22606 -1.97551,-3.66891 0,-2.36857 3.07193,-3.95546 6.57505,-3.39652 2.36767,0.37776 3.14663,0.75752 4.3896,2.14001 1.55644,1.73113 2.30537,3.89117 1.71429,4.94426 -0.30829,0.54926 -0.59622,0.7057 -1.29884,0.7057 -0.78999,0 -1.0492,-0.1927 -2.07558,-1.54307 -1.09329,-1.43839 -2.23289,-2.30945 -2.57451,-1.96784 -0.0808,0.0808 0.42965,0.72523 1.13435,1.43204 0.89935,0.90205 1.46036,1.77805 1.88205,2.93877 0.64683,1.78041 1.10151,2.13536 1.10151,0.85989 0,-0.75782 0.0509,-0.79364 1.12448,-0.79126 3.01411,0.007 7.07761,4.26188 7.07761,7.41156 0,0.38786 -0.23813,1.39732 -0.52917,2.24324 -0.62115,1.8054 -0.68776,2.82933 -0.0904,1.38907 0.22635,-0.54571 0.50863,-0.99219 0.6273,-0.99219 0.43291,0 0.87647,2.03339 0.86575,3.96875 -0.0142,2.56153 -0.59691,3.86549 -2.09719,4.69289 -1.05809,0.58354 -5.89393,1.92169 -6.94464,1.92169 -0.74737,0 -1.48177,-2.02205 -1.2533,-3.45078 0.18432,-1.1527 2.77884,-6.48756 4.11217,-8.45547 1.12493,-1.66032 0.51124,-1.67779 -1.13427,-0.0323 -0.94372,0.94372 -1.21557,1.3552 -0.89533,1.3552 0.25293,0 0.45987,0.0615 0.45987,0.1367 0,0.0752 -0.67594,1.47417 -1.50208,3.10886 -1.31047,2.59301 -1.50454,3.17465 -1.52135,4.55965 -0.0106,0.87312 0.0748,1.95315 0.18978,2.40005 l 0.20906,0.81256 -2.06719,0.44421 c -1.95913,0.421 -2.72156,0.52727 -2.71257,0.37808 z m -59.1886,-13.76567 c -0.87833,-0.98261 -1.26319,-2.33938 -1.25505,-4.42444 0.0149,-3.80223 1.55897,-6.50185 4.16085,-7.27453 0.73784,-0.21911 1.37944,-0.39839 1.42579,-0.39839 0.0463,0 0.0981,0.26789 0.11496,0.59532 0.0234,0.45467 0.0595,0.48491 0.15252,0.12799 0.067,-0.25703 -0.0659,-1.29257 -0.29527,-2.30119 -0.55849,-2.45549 -0.52568,-3.587 0.14412,-4.97062 1.19353,-2.46552 4.78951,-3.59362 5.89017,-1.84782 0.87902,1.39426 0.80963,1.66903 -0.88027,3.48554 -1.50021,1.61262 -1.60197,1.80299 -1.5961,2.98588 0.004,0.72597 0.28448,1.93878 0.66024,2.85095 0.82859,2.01143 0.82083,2.30858 -0.0954,3.65649 -0.96121,1.41409 -1.36489,2.61172 -1.36489,4.04929 0,1.1209 -0.0158,1.14137 -0.76461,0.99161 -0.42053,-0.0841 -1.4229,0.0384 -2.22748,0.27234 -1.12618,0.32739 -1.70237,0.69735 -2.50344,1.60742 l -1.04057,1.18215 z m 4.41012,-6.11203 c 0.52886,-0.52886 0.25528,-0.9419 -0.81472,-1.23002 -1.28625,-0.34635 -1.67382,-0.17621 -0.51712,0.22702 0.74915,0.26115 0.78624,0.3332 0.52512,1.02002 -0.15825,0.41624 -0.19733,1.1447 -0.0895,1.66782 l 0.1915,0.92879 0.21718,-1.17165 c 0.11945,-0.64441 0.33883,-1.2933 0.48751,-1.44198 z"
       id="path900" />
    <g
       aria-label="NeuroDesk"
       id="text2274"
       style="font-size:25.4px;line-height:50.8px;font-family:Sans;letter-spacing:0px;word-spacing:0px;stroke-width:0.264583px">
      <path
         d="m 203.08573,98.046524 h -2.667 l -9.7028,-15.0622 h -0.1016 q 0.0508,0.889 0.127,2.2098 0.0762,1.3208 0.0762,2.7178 v 10.1346 h -2.1082 v -18.1356 h 2.6416 l 9.6774,15.0114 h 0.1016 q -0.0254,-0.4064 -0.0762,-1.2192 -0.0254,-0.8128 -0.0762,-1.778 -0.0254,-0.9652 -0.0254,-1.778 v -10.2362 h 2.1336 z"
         style="font-family:'Noto Sans';-inkscape-font-specification:'Noto Sans';fill:#ffffff"
         id="path24299" />
      <path
         d="m 212.96633,84.178124 q 1.7526,0 2.9972,0.762 1.27,0.762 1.9304,2.159 0.6858,1.3716 0.6858,3.2258 v 1.3462 h -9.3218 q 0.0508,2.3114 1.1684,3.5306 1.143,1.1938 3.175,1.1938 1.2954,0 2.286,-0.2286 1.016,-0.254 2.0828,-0.7112 v 1.9558 q -1.0414,0.4572 -2.0574,0.6604 -1.016,0.2286 -2.413,0.2286 -1.9304,0 -3.429,-0.7874 -1.4732,-0.7874 -2.3114,-2.3368 -0.8128,-1.5748 -0.8128,-3.8354 0,-2.2352 0.7366,-3.8354 0.762,-1.6002 2.1082,-2.4638 1.3716,-0.8636 3.175,-0.8636 z m -0.0254,1.8288 q -1.6002,0 -2.54,1.0414 -0.9144,1.016 -1.0922,2.8448 h 6.9342 q -0.0254,-1.7272 -0.8128,-2.794 -0.7874,-1.0922 -2.4892,-1.0922 z"
         style="font-family:'Noto Sans';-inkscape-font-specification:'Noto Sans';fill:#ffffff"
         id="path24301" />
      <path
         d="m 233.41331,84.432124 v 13.6144 h -1.8288 l -0.3302,-1.8034 h -0.1016 q -0.6604,1.0668 -1.8288,1.5748 -1.1684,0.4826 -2.4892,0.4826 -2.4638,0 -3.7084,-1.1684 -1.2446,-1.1938 -1.2446,-3.7846 v -8.9154 h 2.2606 v 8.763 q 0,3.2512 3.0226,3.2512 2.2606,0 3.1242,-1.27 0.889,-1.27 0.889,-3.6576 v -7.0866 z"
         style="font-family:'Noto Sans';-inkscape-font-specification:'Noto Sans';fill:#ffffff"
         id="path24303" />
      <path
         d="m 244.08131,84.178124 q 0.381,0 0.8128,0.0508 0.4572,0.0254 0.7874,0.1016 l -0.2794,2.0574 q -0.3302,-0.0762 -0.7366,-0.127 -0.381,-0.0508 -0.7366,-0.0508 -1.0414,0 -1.9558,0.5842 -0.9144,0.5588 -1.4732,1.6002 -0.5334,1.016 -0.5334,2.3876 v 7.2644 h -2.2352 v -13.6144 h 1.8288 l 0.254,2.4892 h 0.1016 q 0.6604,-1.1176 1.7018,-1.9304 1.0414,-0.8128 2.4638,-0.8128 z"
         style="font-family:'Noto Sans';-inkscape-font-specification:'Noto Sans';fill:#ffffff"
         id="path24305" />
      <path
         d="m 259.5499,91.213924 q 0,3.3782 -1.7272,5.2324 -1.7018,1.8542 -4.6228,1.8542 -1.8034,0 -3.2258,-0.8128 -1.397,-0.8382 -2.2098,-2.413 -0.8128,-1.6002 -0.8128,-3.8608 0,-3.3782 1.7018,-5.207 1.7018,-1.8288 4.6228,-1.8288 1.8542,0 3.2512,0.8382 1.4224,0.8128 2.2098,2.3876 0.8128,1.5494 0.8128,3.81 z m -10.287,0 q 0,2.413 0.9398,3.8354 0.9652,1.397 3.048,1.397 2.0574,0 3.0226,-1.397 0.9652,-1.4224 0.9652,-3.8354 0,-2.413 -0.9652,-3.7846 -0.9652,-1.3716 -3.048,-1.3716 -2.0828,0 -3.0226,1.3716 -0.9398,1.3716 -0.9398,3.7846 z"
         style="font-family:'Noto Sans';-inkscape-font-specification:'Noto Sans';fill:#ffffff"
         id="path24307" />
      <path
         d="m 277.91409,88.800924 q 0,4.5974 -2.5146,6.9342 -2.4892,2.3114 -6.9596,2.3114 h -5.0546 v -18.1356 h 5.588 q 2.7432,0 4.7498,1.016 2.0066,1.016 3.0988,2.9972 1.0922,1.9558 1.0922,4.8768 z m -2.413,0.0762 q 0,-3.6322 -1.8034,-5.3086 -1.778,-1.7018 -5.0546,-1.7018 h -2.9718 v 14.224 h 2.4638 q 7.366,0 7.366,-7.2136 z"
         style="font-family:'Noto Sans';-inkscape-font-specification:'Noto Sans';fill:#ffffff"
         id="path24309" />
      <path
         d="m 286.88028,84.178124 q 1.7526,0 2.9972,0.762 1.27,0.762 1.9304,2.159 0.6858,1.3716 0.6858,3.2258 v 1.3462 h -9.3218 q 0.0508,2.3114 1.1684,3.5306 1.143,1.1938 3.175,1.1938 1.2954,0 2.286,-0.2286 1.016,-0.254 2.0828,-0.7112 v 1.9558 q -1.0414,0.4572 -2.0574,0.6604 -1.016,0.2286 -2.413,0.2286 -1.9304,0 -3.429,-0.7874 -1.4732,-0.7874 -2.3114,-2.3368 -0.8128,-1.5748 -0.8128,-3.8354 0,-2.2352 0.7366,-3.8354 0.762,-1.6002 2.1082,-2.4638 1.3716,-0.8636 3.175,-0.8636 z m -0.0254,1.8288 q -1.6002,0 -2.54,1.0414 -0.9144,1.016 -1.0922,2.8448 h 6.9342 q -0.0254,-1.7272 -0.8128,-2.794 -0.7874,-1.0922 -2.4892,-1.0922 z"
         style="font-family:'Noto Sans';-inkscape-font-specification:'Noto Sans';fill:#ffffff"
         id="path24311" />
      <path
         d="m 304.81266,94.287324 q 0,1.9812 -1.4732,2.9972 -1.4732,1.016 -3.9624,1.016 -1.4224,0 -2.4638,-0.2286 -1.016,-0.2286 -1.8034,-0.635 v -2.032 q 0.8128,0.4064 1.9558,0.762 1.1684,0.3302 2.3622,0.3302 1.7018,0 2.4638,-0.5334 0.762,-0.5588 0.762,-1.4732 0,-0.508 -0.2794,-0.9144 -0.2794,-0.4064 -1.016,-0.8128 -0.7112,-0.4064 -2.0574,-0.9144 -1.3208,-0.508 -2.2606,-1.016 -0.9398,-0.508 -1.4478,-1.2192 -0.508,-0.7112 -0.508,-1.8288 0,-1.7272 1.397,-2.667 1.4224,-0.9398 3.7084,-0.9398 1.2446,0 2.3114,0.254 1.0922,0.2286 2.032,0.6604 l -0.762,1.778 q -0.8636,-0.3556 -1.8034,-0.6096 -0.9398,-0.254 -1.9304,-0.254 -1.3716,0 -2.1082,0.4572 -0.7112,0.4318 -0.7112,1.1938 0,0.5588 0.3302,0.9652 0.3302,0.381 1.0922,0.762 0.7874,0.3556 2.0828,0.8636 1.2954,0.4826 2.2098,0.9906 0.9144,0.508 1.397,1.2446 0.4826,0.7112 0.4826,1.8034 z"
         style="font-family:'Noto Sans';-inkscape-font-specification:'Noto Sans';fill:#ffffff"
         id="path24313" />
      <path
         d="m 310.32446,88.826324 q 0,0.4064 -0.0508,1.0668 -0.0254,0.6604 -0.0508,1.143 h 0.1016 q 0.1524,-0.2032 0.4572,-0.5842 0.3048,-0.381 0.6096,-0.762 0.3302,-0.4064 0.5588,-0.6604 l 4.3434,-4.5974 h 2.6162 l -5.5118,5.8166 5.8928,7.7978 h -2.6924 l -4.7244,-6.35 -1.5494,1.3462 v 5.0038 h -2.2098 v -19.304 h 2.2098 z"
         style="font-family:'Noto Sans';-inkscape-font-specification:'Noto Sans';fill:#ffffff"
         id="path24315" />
    </g>
  </g>
</svg>
